<svg width="22" height="22" viewBox="0 0 22 22" fill="none" xmlns="http://www.w3.org/2000/svg">
<g id="Speech bubble">
<g id="Group">
<g id="Group_2">
<path id="Vector" d="M22 9.43804C22 4.22555 17.7551 0 12.5189 0C7.28256 0 3.03772 4.22555 3.03772 9.43804C3.03772 14.6505 7.28256 18.8761 12.5189 18.8761C13.6179 18.8761 14.6729 18.6893 15.6545 18.347L18.5469 19.7439V16.7232C20.6557 14.9921 22 12.3713 22 9.43804Z" fill="#FF9E5E"/>
<path id="Vector_2" d="M12.519 0C12.2204 0 11.9252 0.0144375 11.6336 0.041293C16.4547 0.485805 20.2295 4.5228 20.2295 9.43804C20.2295 14.2719 16.3532 18.3787 11.6202 18.8336C11.9161 18.8613 12.2158 18.8761 12.519 18.8761C13.618 18.8761 14.673 18.6893 15.6546 18.347L18.5471 19.7439V16.7231C20.6558 14.9921 22.0001 12.3713 22.0001 9.43804C22.0001 4.22555 17.7552 0 12.519 0Z" fill="#FA8D46"/>
<g id="Group_3">
<path id="Vector_3" d="M8.13133 10.9636C8.86982 10.9636 9.46848 10.3649 9.46848 9.62645C9.46848 8.88797 8.86982 8.28931 8.13133 8.28931C7.39285 8.28931 6.79419 8.88797 6.79419 9.62645C6.79419 10.3649 7.39285 10.9636 8.13133 10.9636Z" fill="#FFF7E8"/>
<path id="Vector_4" d="M12.5188 10.9636C13.2573 10.9636 13.8559 10.3649 13.8559 9.62645C13.8559 8.88797 13.2573 8.28931 12.5188 8.28931C11.7803 8.28931 11.1816 8.88797 11.1816 9.62645C11.1816 10.3649 11.7803 10.9636 12.5188 10.9636Z" fill="#FFF7E8"/>
<path id="Vector_5" d="M16.9065 10.9636C17.645 10.9636 18.2436 10.3649 18.2436 9.62645C18.2436 8.88797 17.645 8.28931 16.9065 8.28931C16.168 8.28931 15.5693 8.88797 15.5693 9.62645C15.5693 10.3649 16.168 10.9636 16.9065 10.9636Z" fill="#FFF7E8"/>
</g>
</g>
<path id="Vector_6" d="M0 16.9192C0 14.3495 2.09266 12.2664 4.6741 12.2664C7.25553 12.2664 9.34824 14.3495 9.34824 16.9192C9.34824 19.489 7.25557 21.5721 4.6741 21.5721C4.13231 21.5721 3.61217 21.4801 3.12825 21.3113L1.70234 21.9999V20.5107C0.66275 19.6573 0 18.3653 0 16.9192Z" fill="#FFD88F"/>
<g id="Group_4">
<path id="Vector_7" d="M4.6741 12.2664C4.37139 12.2664 4.07551 12.2954 3.78882 12.3501C5.94688 12.762 7.57763 14.6509 7.57763 16.9193C7.57763 19.1869 5.94804 21.0752 3.7911 21.488C4.07714 21.5426 4.37208 21.5722 4.6741 21.5722C7.25554 21.5722 9.34824 19.489 9.34824 16.9193C9.34824 14.3495 7.25558 12.2664 4.6741 12.2664Z" fill="#FFC963"/>
</g>
</g>
</g>
</svg>
