<svg width="22" height="22" viewBox="0 0 22 22" fill="none" xmlns="http://www.w3.org/2000/svg">
<g id="Contacts">
<g id="Group">
<g id="Group_2">
<g id="Group_3">
<g id="Group_4">
<path id="Vector" d="M17.4691 18.8927H19.7652C20.4953 18.8927 21.087 18.3009 21.087 17.5709V13.697H17.4691V18.8927Z" fill="#FFD88F"/>
<path id="Vector_2" d="M17.4691 15.3803H19.7652C20.4953 15.3803 21.087 14.7885 21.087 14.0585V10.1846H17.4691V15.3803Z" fill="#FF7893"/>
<path id="Vector_3" d="M17.4691 11.8678H19.7652C20.4953 11.8678 21.087 11.276 21.087 10.546V6.61377H17.4691V11.8678Z" fill="#59A1A5"/>
<path id="Vector_4" d="M17.4691 8.29689H19.7651C20.4952 8.29689 21.087 7.70513 21.087 6.97517V4.42291C21.087 3.69296 20.4951 3.1012 19.7651 3.1012H17.4691V8.29689Z" fill="#FF9E5E"/>
</g>
<g id="Group_5">
<path id="Vector_5" d="M16.5602 21.6777H4.72467C3.40592 21.6777 2.33685 20.6086 2.33685 19.2899V2.71004C2.33685 1.39129 3.40592 0.322266 4.72467 0.322266H16.5602C17.8789 0.322266 18.948 1.39133 18.948 2.71008V19.2899C18.948 20.6086 17.8789 21.6777 16.5602 21.6777Z" fill="#FFF7E8"/>
<path id="Vector_6" d="M16.5601 0.322266H14.8414C16.1601 0.322266 17.2292 1.39133 17.2292 2.71008V19.2899C17.2292 20.6087 16.1601 21.6777 14.8414 21.6777H16.5601C17.8789 21.6777 18.9479 20.6087 18.9479 19.2899V2.71012C18.9479 1.39133 17.8789 0.322266 16.5601 0.322266Z" fill="#FFF1D6"/>
<g id="Group_6">
<path id="Vector_7" d="M4.72484 0.322266C3.406 0.322266 2.33685 1.39124 2.33685 2.70991V19.2901C2.33685 20.6088 3.406 21.6777 4.72484 21.6777H6.22114V0.322266H4.72484Z" fill="#59A1A5"/>
</g>
<g id="Group_7">
<path id="Vector_8" d="M3.47944 4.77694H1.20854C0.719039 4.77694 0.322266 4.38012 0.322266 3.89067C0.322266 3.40117 0.719082 3.00439 1.20854 3.00439H3.47944C3.96894 3.00439 4.36571 3.40121 4.36571 3.89067C4.36571 4.38012 3.96894 4.77694 3.47944 4.77694Z" fill="#B5E8E0"/>
<path id="Vector_9" d="M3.47944 9.51649H1.20854C0.719082 9.51649 0.322266 9.11967 0.322266 8.63021C0.322266 8.14071 0.719082 7.7439 1.20858 7.7439H3.47948C3.96898 7.7439 4.36575 8.14071 4.36575 8.63017C4.36571 9.11967 3.96894 9.51649 3.47944 9.51649Z" fill="#B5E8E0"/>
<path id="Vector_10" d="M3.47944 14.2561H1.20854C0.719082 14.2561 0.322266 13.8593 0.322266 13.3698C0.322266 12.8803 0.719082 12.4835 1.20858 12.4835H3.47948C3.96898 12.4835 4.36575 12.8803 4.36575 13.3698C4.36571 13.8593 3.96894 14.2561 3.47944 14.2561Z" fill="#B5E8E0"/>
<path id="Vector_11" d="M3.47944 18.9957H1.20854C0.719082 18.9957 0.322266 18.5989 0.322266 18.1094C0.322266 17.6199 0.719082 17.2231 1.20858 17.2231H3.47948C3.96898 17.2231 4.36575 17.62 4.36575 18.1094C4.36571 18.5989 3.96894 18.9957 3.47944 18.9957Z" fill="#B5E8E0"/>
</g>
<g id="Group_8">
<path id="Vector_12" d="M3.47943 3.00439H1.76068C2.25018 3.00439 2.64695 3.40121 2.64695 3.89067C2.64695 4.38012 2.25014 4.77694 1.76068 4.77694H3.47943C3.96893 4.77694 4.3657 4.38012 4.3657 3.89067C4.3657 3.40121 3.96893 3.00439 3.47943 3.00439Z" fill="#97DBD1"/>
<path id="Vector_13" d="M3.47943 7.74402H1.76068C2.25018 7.74402 2.64695 8.14083 2.64695 8.63029C2.64695 9.11979 2.25014 9.51657 1.76068 9.51657H3.47943C3.96893 9.51657 4.3657 9.11975 4.3657 8.63029C4.36575 8.14083 3.96893 7.74402 3.47943 7.74402Z" fill="#97DBD1"/>
<path id="Vector_14" d="M3.47943 12.4835H1.76068C2.25018 12.4835 2.64695 12.8803 2.64695 13.3698C2.64695 13.8593 2.25014 14.2561 1.76068 14.2561H3.47943C3.96893 14.2561 4.3657 13.8593 4.3657 13.3698C4.36575 12.8803 3.96893 12.4835 3.47943 12.4835Z" fill="#97DBD1"/>
<path id="Vector_15" d="M3.47943 17.2231H1.76068C2.25018 17.2231 2.64695 17.62 2.64695 18.1094C2.64695 18.5989 2.25014 18.9957 1.76068 18.9957H3.47943C3.96893 18.9957 4.3657 18.5989 4.3657 18.1094C4.36575 17.6199 3.96893 17.2231 3.47943 17.2231Z" fill="#97DBD1"/>
</g>
</g>
</g>
</g>
<g id="Group_9">
<path id="Vector_16" d="M19.7651 2.77896H19.2702C19.2865 1.28086 18.0755 0 16.5602 0H6.22854C6.22729 0 6.22609 0.000171875 6.22484 0.000171875C6.22359 0.000171875 6.22239 0 6.22114 0H4.72484C3.23971 0 2.03032 1.20068 2.01528 2.68215H1.20854C0.542137 2.68215 0 3.22429 0 3.89069C0 4.55709 0.542137 5.09923 1.20854 5.09923H2.01459V7.42169H1.20854C0.542137 7.42169 0 7.96387 0 8.63027C0 9.29668 0.542137 9.83881 1.20854 9.83881H2.01459V12.1613H1.20854C0.542137 12.1613 0 12.7035 0 13.3699C0 14.0363 0.542137 14.5784 1.20854 14.5784H2.01459V16.9008H1.20854C0.542137 16.9008 0 17.4429 0 18.1094C0 18.7758 0.542137 19.3179 1.20854 19.3179H2.01532C2.03036 20.7993 3.23976 22 4.72484 22H6.22114C6.22239 22 6.22359 21.9998 6.22484 21.9998C6.22609 21.9998 6.22729 22 6.22854 22H16.5602C18.0802 22 19.2861 20.7158 19.2702 19.2151H19.7652C20.6718 19.2151 21.4093 18.4775 21.4093 17.571V4.42295C21.4093 3.51643 20.6717 2.77896 19.7651 2.77896ZM20.7647 14.0584C20.7647 14.6096 20.3163 15.058 19.7652 15.058H19.2702V12.19H19.7652C20.141 12.19 20.4875 12.063 20.7647 11.85V14.0584ZM20.7647 10.5459C20.7647 11.0971 20.3163 11.5455 19.7652 11.5455H19.2702V8.61919H19.7651C20.141 8.61919 20.4875 8.49217 20.7648 8.27918V10.5459H20.7647ZM19.7651 3.42349C20.3163 3.42349 20.7648 3.87187 20.7648 4.42295V6.9752C20.7648 7.52628 20.3163 7.97466 19.7651 7.97466H19.2702V3.42349H19.7651ZM0.644531 3.89069C0.644531 3.57973 0.897574 3.32668 1.20854 3.32668H3.47944C3.79045 3.32668 4.04345 3.57973 4.04345 3.89069C4.04345 4.20166 3.79045 4.4547 3.47944 4.4547H1.20854C0.897531 4.4547 0.644531 4.20166 0.644531 3.89069ZM0.644531 8.63027C0.644531 8.31927 0.897574 8.06622 1.20854 8.06622H3.47944C3.79045 8.06622 4.04345 8.31927 4.04345 8.63027C4.04345 8.94124 3.79045 9.19428 3.47944 9.19428H1.20854C0.897531 9.19428 0.644531 8.94124 0.644531 8.63027ZM0.644531 13.3698C0.644531 13.0588 0.897574 12.8058 1.20854 12.8058H3.47944C3.79045 12.8058 4.04345 13.0588 4.04345 13.3698C4.04345 13.6808 3.79045 13.9338 3.47944 13.9338H1.20854C0.897531 13.9338 0.644531 13.6808 0.644531 13.3698ZM0.644531 18.1094C0.644531 17.7984 0.897574 17.5453 1.20854 17.5453H3.47944C3.79045 17.5453 4.04345 17.7984 4.04345 18.1094C4.04345 18.4203 3.79045 18.6734 3.47944 18.6734H1.20854C0.897531 18.6734 0.644531 18.4203 0.644531 18.1094ZM19.7652 18.5705H19.2702V18.1094C19.2702 17.6927 18.6257 17.6927 18.6257 18.1094V19.29C18.6257 20.4289 17.6991 21.3555 16.5602 21.3555H6.54337V4.77696C6.54337 4.3603 5.89884 4.3603 5.89884 4.77696V21.3555H4.7248C3.59511 21.3555 2.6748 20.4439 2.65981 19.3179H3.47944C4.14584 19.3179 4.68798 18.7758 4.68798 18.1094C4.68798 17.4429 4.14584 16.9008 3.47944 16.9008H2.65912V14.5784H3.47944C4.14584 14.5784 4.68798 14.0362 4.68798 13.3698C4.68798 12.7034 4.14584 12.1612 3.47944 12.1612H2.65912V9.83877H3.47944C4.14584 9.83877 4.68798 9.29663 4.68798 8.63023C4.68798 7.96383 4.14584 7.42165 3.47944 7.42165H2.65912V5.09919H3.47944C4.14584 5.09919 4.68798 4.55705 4.68798 3.89065C4.68798 3.22425 4.14584 2.68215 3.47944 2.68215H2.65981C2.6748 1.55607 3.59511 0.644531 4.72484 0.644531H5.89888V3.10123C5.89888 3.51789 6.54341 3.51789 6.54341 3.10123V0.644531H16.5602C17.6991 0.644531 18.6258 1.57111 18.6258 2.71008V16.4372C18.6258 16.8538 19.2703 16.8538 19.2703 16.4372V15.7025H19.7652C20.141 15.7025 20.4876 15.5755 20.7648 15.3625V17.571C20.7647 18.1221 20.3164 18.5705 19.7652 18.5705Z" fill="black"/>
<path id="Vector_17" d="M14.1197 8.88945C14.7064 8.39384 15.0619 7.65504 15.0619 6.86837C15.0619 5.41168 13.8766 4.22656 12.4197 4.22656C10.9628 4.22656 9.77754 5.41168 9.77754 6.86837C9.77754 7.65508 10.1329 8.39384 10.7197 8.88945C9.32461 9.54089 8.39648 10.958 8.39648 12.5353C8.39648 12.952 9.04102 12.952 9.04102 12.5353C9.04102 11.0204 10.0604 9.68145 11.5201 9.27922C11.8027 9.20131 11.8368 8.80149 11.5715 8.67684C10.8732 8.34877 10.4221 7.63897 10.4221 6.86837C10.4221 5.76704 11.3182 4.87109 12.4197 4.87109C13.5212 4.87109 14.4174 5.76708 14.4174 6.86837C14.4174 7.63897 13.9662 8.34877 13.2679 8.67684C13.0026 8.80149 13.0367 9.20131 13.3193 9.27922C14.779 9.68145 15.7984 11.0204 15.7984 12.5353C15.7984 12.952 16.4429 12.952 16.4429 12.5353C16.4429 10.958 15.5149 9.54089 14.1197 8.88945Z" fill="black"/>
<path id="Vector_18" d="M16.1207 14.9969H8.71875C8.30208 14.9969 8.30208 15.6415 8.71875 15.6415H16.1207C16.5373 15.6415 16.5373 14.9969 16.1207 14.9969Z" fill="black"/>
<path id="Vector_19" d="M14.8257 17.1229H10.0137C9.597 17.1229 9.597 17.7675 10.0137 17.7675H14.8257C15.2424 17.7675 15.2424 17.1229 14.8257 17.1229Z" fill="black"/>
</g>
</g>
</g>
</svg>
