<svg width="22" height="22" viewBox="0 0 22 22" fill="none" xmlns="http://www.w3.org/2000/svg">
<g id="Contact book">
<g id="Group">
<path id="Vector" d="M19.3789 11H18.0898L16.8008 12.2891V16.1562H20.668V12.2891L19.3789 11Z" fill="#DFE7F4"/>
<path id="Vector_2" d="M19.3789 7.13281H18.0898L16.8008 8.42188V12.2891H20.668V8.42188L19.3789 7.13281Z" fill="#C7CFE1"/>
<path id="Vector_3" d="M16.8008 4.51172H20.668V8.42188H16.8008V4.51172Z" fill="#DFE7F4"/>
<path id="Vector_4" d="M1.33203 0V22H3.91016L5.19922 20.7109V1.28906L3.91016 0H1.33203Z" fill="#61729B"/>
<path id="Vector_5" d="M14.8672 0H11H3.91016V22H11H14.8672C16.6441 22 18.0898 20.5542 18.0898 18.7773V3.22266C18.0898 1.44577 16.6441 0 14.8672 0Z" fill="#FF7B4A"/>
<path id="Vector_6" d="M18.0898 18.7773V3.22266C18.0898 1.44577 16.6441 0 14.8672 0H11V22H14.8672C16.6441 22 18.0898 20.5542 18.0898 18.7773Z" fill="#FF435B"/>
<g id="Group_2">
<path id="Vector_7" d="M11 9.06641C12.0679 9.06641 12.9336 8.20071 12.9336 7.13281C12.9336 6.06492 12.0679 5.19922 11 5.19922C9.93211 5.19922 9.06641 6.06492 9.06641 7.13281C9.06641 8.20071 9.93211 9.06641 11 9.06641Z" fill="#F0F7FF"/>
<path id="Vector_8" d="M12.9336 7.13281C12.9336 6.06659 12.0662 5.19922 11 5.19922V9.06641C12.0662 9.06641 12.9336 8.19904 12.9336 7.13281Z" fill="#DFE7F4"/>
<path id="Vector_9" d="M11 9.06641C9.22311 9.06641 7.77734 10.5122 7.77734 12.2891V12.9336H11H14.2227V12.2891C14.2227 10.5122 12.7769 9.06641 11 9.06641Z" fill="#F0F7FF"/>
<path id="Vector_10" d="M14.2227 12.2891C14.2227 10.5122 12.7769 9.06641 11 9.06641V12.9336H14.2227V12.2891Z" fill="#DFE7F4"/>
</g>
<path id="Vector_11" d="M7.77734 14.2227H14.2227V15.5117H7.77734V14.2227Z" fill="#FF435B"/>
<path id="Vector_12" d="M11 14.2227H14.2227V15.5117H11V14.2227Z" fill="#D0004F"/>
</g>
</g>
</svg>
