<svg width="22" height="22" viewBox="0 0 22 22" fill="none" xmlns="http://www.w3.org/2000/svg">
<g id="Photos">
<path id="Vector" d="M17.4883 22H4.51172C2.02396 22 0 19.976 0 17.4883V4.51172C0 2.02396 2.02396 0 4.51172 0H17.4883C19.976 0 22 2.02396 22 4.51172V17.4883C22 19.976 19.976 22 17.4883 22Z" fill="#F2F2F2"/>
<path id="Vector_2" d="M17.4883 0H11V22H17.4883C19.976 22 22 19.976 22 17.4883V4.51172C22 2.02396 19.976 0 17.4883 0Z" fill="#E5E5E5"/>
<path id="Vector_3" d="M11.1187 9.63974H10.8813C9.69481 9.63974 8.73291 8.67784 8.73291 7.4913V4.94141C8.73291 3.75487 9.69481 2.79297 10.8813 2.79297H11.1187C12.3053 2.79297 13.2672 3.75487 13.2672 4.94141V7.4913C13.2672 8.67784 12.3053 9.63974 11.1187 9.63974Z" fill="#FFAB15"/>
<path id="Vector_4" d="M10.1221 9.95432L9.95419 10.1222C9.11519 10.9612 7.75488 10.9612 6.91583 10.1222L5.11278 8.31914C4.27377 7.48013 4.27377 6.11983 5.11278 5.28078L5.28066 5.1129C6.11966 4.27389 7.47997 4.27389 8.31902 5.1129L10.1221 6.91595C10.9611 7.755 10.9611 9.11531 10.1221 9.95432Z" fill="#FF6849"/>
<path id="Vector_5" d="M9.63974 10.8813V11.1187C9.63974 12.3053 8.67784 13.2672 7.4913 13.2672H4.94141C3.75487 13.2672 2.79297 12.3053 2.79297 11.1187V10.8813C2.79297 9.69481 3.75487 8.73291 4.94141 8.73291H7.4913C8.67784 8.73291 9.63974 9.69477 9.63974 10.8813Z" fill="#FF5AD4"/>
<path id="Vector_6" d="M9.95419 11.878L10.1221 12.0459C10.9611 12.8849 10.9611 14.2452 10.1221 15.0843L8.31902 16.8873C7.48001 17.7263 6.11971 17.7263 5.28066 16.8873L5.11278 16.7195C4.27377 15.8804 4.27377 14.5201 5.11278 13.6811L6.91583 11.878C7.75488 11.039 9.11519 11.039 9.95419 11.878Z" fill="#CD67E5"/>
<path id="Vector_7" d="M10.8813 12.3601H11.1187C12.3053 12.3601 13.2672 13.322 13.2672 14.5085V17.0584C13.2672 18.245 12.3053 19.2069 11.1187 19.2069H10.8813C9.69481 19.2069 8.73291 18.245 8.73291 17.0584V14.5085C8.73291 13.322 9.69477 12.3601 10.8813 12.3601Z" fill="#00C3FF"/>
<path id="Vector_8" d="M11.8779 12.0459L12.0458 11.878C12.8848 11.039 14.2451 11.039 15.0842 11.878L16.8872 13.6811C17.7262 14.5201 17.7262 15.8804 16.8872 16.7195L16.7193 16.8873C15.8803 17.7263 14.52 17.7263 13.681 16.8873L11.8779 15.0843C11.0389 14.2452 11.0389 12.8849 11.8779 12.0459Z" fill="#39E5D0"/>
<path id="Vector_9" d="M12.3602 11.1187V10.8813C12.3602 9.69481 13.3221 8.73291 14.5087 8.73291H17.0586C18.2451 8.73291 19.207 9.69481 19.207 10.8813V11.1187C19.207 12.3053 18.2451 13.2672 17.0586 13.2672H14.5087C13.3221 13.2672 12.3602 12.3053 12.3602 11.1187Z" fill="#BEE548"/>
<path id="Vector_10" d="M12.0458 10.1222L11.8779 9.95432C11.0389 9.11531 11.0389 7.755 11.8779 6.91595L13.681 5.1129C14.52 4.27389 15.8803 4.27389 16.7193 5.1129L16.8872 5.28078C17.7262 6.11978 17.7262 7.48009 16.8872 8.31914L15.0842 10.1222C14.2451 10.9612 12.8848 10.9612 12.0458 10.1222Z" fill="#FFDC40"/>
<path id="Vector_11" d="M11.1187 2.79297H11V9.63974H11.1187C12.3052 9.63974 13.2671 8.67784 13.2671 7.4913V4.94141C13.2671 3.75487 12.3053 2.79297 11.1187 2.79297Z" fill="#FF9400"/>
<path id="Vector_12" d="M11.1187 12.3601H11V19.2069H11.1187C12.3052 19.2069 13.2671 18.245 13.2671 17.0584V14.5085C13.2671 13.322 12.3053 12.3601 11.1187 12.3601Z" fill="#00AAF0"/>
<path id="Vector_13" d="M8.73291 5.52661V7.49123C8.73291 8.51767 9.45298 9.3755 10.4154 9.58841C10.9453 8.7573 10.8479 7.64162 10.1221 6.91579L8.73291 5.52661Z" fill="#FD4B2D"/>
<path id="Vector_14" d="M11.8779 6.91583C11.1521 7.64166 11.0547 8.75735 11.5846 9.58845C12.547 9.37554 13.2671 8.51775 13.2671 7.49127V5.52661L11.8779 6.91583Z" fill="#E08344"/>
<path id="Vector_15" d="M12.4116 10.4154C13.2427 10.9454 14.3583 10.848 15.0842 10.1221L16.4734 8.73291H14.5088C13.4823 8.73295 12.6245 9.45298 12.4116 10.4154Z" fill="#82B415"/>
<path id="Vector_16" d="M12.4116 11.5847C12.6245 12.5471 13.4823 13.2672 14.5087 13.2672H16.4734L15.0842 11.8779C14.3583 11.1522 13.2426 11.0547 12.4116 11.5847Z" fill="#66CC70"/>
<path id="Vector_17" d="M13.267 14.5088C13.267 13.4824 12.547 12.6245 11.5846 12.4116C11.0546 13.2427 11.152 14.3584 11.8779 15.0842L13.2671 16.4735V14.5088H13.267Z" fill="#107BE5"/>
<path id="Vector_18" d="M8.73291 14.5088V16.4735L10.1221 15.0842C10.848 14.3584 10.9453 13.2427 10.4154 12.4116C9.45294 12.6246 8.73291 13.4824 8.73291 14.5088Z" fill="#A056B2"/>
<path id="Vector_19" d="M6.91591 11.878L5.52673 13.2672H7.49135C8.51783 13.2672 9.37562 12.5471 9.58853 11.5847C8.75743 11.0547 7.64174 11.1521 6.91591 11.878Z" fill="#FF26BE"/>
<path id="Vector_20" d="M9.58847 10.4154C9.37556 9.45294 8.51777 8.73291 7.49129 8.73291H5.52667L6.9159 10.1221C7.64172 10.8479 8.75741 10.9453 9.58847 10.4154Z" fill="#EA596E"/>
</g>
</svg>
