<svg width="22" height="22" viewBox="0 0 22 22" fill="none" xmlns="http://www.w3.org/2000/svg">
<g id="Like">
<path id="Vector" d="M14.43 10.963H8.84488C8.55381 10.963 8.29875 10.7683 8.222 10.4875C8.14526 10.2068 8.26583 9.90939 8.51638 9.76127C10.9498 8.32337 12.2138 6.64604 12.3806 4.63347C12.4387 3.93501 13.0608 3.37711 13.767 3.38634C14.4876 3.39786 15.1627 3.6867 15.6683 4.19974C16.1743 4.71326 16.4531 5.39328 16.4534 6.11447C16.4534 6.11456 16.4534 6.11464 16.4534 6.11473V6.33168C16.4534 8.0934 15.9316 9.21669 14.9688 10.6732C14.8491 10.8542 14.6469 10.963 14.43 10.963Z" fill="#FFC380"/>
<path id="Vector_2" d="M21.2749 11.6948C21.2749 10.5792 20.3673 9.67151 19.2516 9.67151H8.84495C8.72932 9.67151 8.6158 9.70253 8.51633 9.7614C7.78582 10.1933 7.04821 10.5489 6.45555 10.8347C6.24882 10.9343 6.05357 11.0285 5.87598 11.1172C5.65723 11.2266 5.51904 11.4502 5.51904 11.6948V19.9602C5.51904 20.2049 5.65723 20.4284 5.87598 20.5378C8.48518 21.8422 10.6541 22 13.1833 22C13.5749 22 13.9755 21.9962 14.3874 21.9923C14.8429 21.988 15.3139 21.9836 15.8077 21.9836H17.8491C18.9647 21.9836 19.8724 21.0759 19.8724 19.9602C19.8724 19.5851 19.7698 19.2336 19.5912 18.932C20.1725 18.5762 20.5612 17.9352 20.5612 17.2051C20.5612 16.83 20.4586 16.4784 20.28 16.1769C20.8613 15.821 21.25 15.1801 21.25 14.4499C21.25 13.9252 21.0492 13.4465 20.7204 13.0866C21.0785 12.7093 21.2749 12.2172 21.2749 11.6948Z" fill="#FFCF99"/>
<g id="Group">
<path id="Vector_3" d="M19.9316 6.06356H18.5541C18.1975 6.06356 17.9083 5.77443 17.9083 5.41783C17.9083 5.06123 18.1975 4.77209 18.5541 4.77209H19.9316C20.2882 4.77209 20.5774 5.06123 20.5774 5.41783C20.5774 5.77443 20.2883 6.06356 19.9316 6.06356Z" fill="#29CCB1"/>
<path id="Vector_4" d="M10.2887 6.06356H8.91112C8.55452 6.06356 8.26538 5.77443 8.26538 5.41783C8.26538 5.06123 8.55452 4.77209 8.91112 4.77209H10.2887C10.6453 4.77209 10.9344 5.06123 10.9344 5.41783C10.9344 5.77443 10.6454 6.06356 10.2887 6.06356Z" fill="#29CCB1"/>
<path id="Vector_5" d="M12.3557 2.48466C12.1325 2.48466 11.9155 2.36886 11.7959 2.16171L11.1071 0.968684C10.9288 0.659868 11.0346 0.264899 11.3435 0.0866219C11.6523 -0.0916984 12.0472 0.0141336 12.2255 0.32295L12.9143 1.51598C13.0926 1.82479 12.9868 2.21976 12.678 2.39804C12.5763 2.45678 12.4652 2.48466 12.3557 2.48466Z" fill="#29CCB1"/>
<path id="Vector_6" d="M16.4871 2.4847C16.3776 2.4847 16.2665 2.45682 16.1649 2.39808C15.8561 2.21976 15.7502 1.82483 15.9285 1.51602L16.6173 0.322988C16.7956 0.0141718 17.1906 -0.0917462 17.4994 0.0866601C17.8082 0.26498 17.914 0.659906 17.7357 0.968723L17.0469 2.16175C16.9274 2.3689 16.7103 2.4847 16.4871 2.4847Z" fill="#29CCB1"/>
</g>
<path id="SVGCleanerId_0" d="M4.0466 18.5908V21.9917H2.75513V18.5908C2.75513 18.2344 3.04444 17.9451 3.40086 17.9451C3.75729 17.9451 4.0466 18.2344 4.0466 18.5908Z" fill="#73C3FF"/>
<g id="Group_2">
<path id="Vector_7" d="M19.9316 6.06356H18.5541C18.1975 6.06356 17.9083 5.77443 17.9083 5.41783C17.9083 5.06123 18.1975 4.77209 18.5541 4.77209H19.9316C20.2882 4.77209 20.5774 5.06123 20.5774 5.41783C20.5774 5.77443 20.2883 6.06356 19.9316 6.06356Z" fill="#29CCB1"/>
<path id="Vector_8" d="M10.2887 6.06356H8.91112C8.55452 6.06356 8.26538 5.77443 8.26538 5.41783C8.26538 5.06123 8.55452 4.77209 8.91112 4.77209H10.2887C10.6453 4.77209 10.9344 5.06123 10.9344 5.41783C10.9344 5.77443 10.6454 6.06356 10.2887 6.06356Z" fill="#29CCB1"/>
<path id="Vector_9" d="M12.3557 2.48466C12.1325 2.48466 11.9155 2.36886 11.7959 2.16171L11.1071 0.968684C10.9288 0.659868 11.0346 0.264899 11.3435 0.0866219C11.6523 -0.0916984 12.0472 0.0141336 12.2255 0.32295L12.9143 1.51598C13.0926 1.82479 12.9868 2.21976 12.678 2.39804C12.5763 2.45678 12.4652 2.48466 12.3557 2.48466Z" fill="#29CCB1"/>
<path id="Vector_10" d="M16.4871 2.4847C16.3776 2.4847 16.2665 2.45682 16.1649 2.39808C15.8561 2.21976 15.7502 1.82483 15.9285 1.51602L16.6173 0.322988C16.7956 0.0141718 17.1906 -0.0917462 17.4994 0.0866601C17.8082 0.26498 17.914 0.659906 17.7357 0.968723L17.0469 2.16175C16.9274 2.3689 16.7103 2.4847 16.4871 2.4847Z" fill="#29CCB1"/>
</g>
<g id="Group_3">
<path id="SVGCleanerId_0_1_" d="M4.0466 18.5908V21.9917H2.75513V18.5908C2.75513 18.2344 3.04444 17.9451 3.40086 17.9451C3.75729 17.9451 4.0466 18.2344 4.0466 18.5908Z" fill="#73C3FF"/>
</g>
<path id="Vector_11" d="M6.156 9.67151H0.645734C0.289309 9.67151 0 9.96082 0 10.3172V21.3378C0 21.6946 0.289309 21.9835 0.645734 21.9917H4.77843C5.57008 21.9835 6.25672 21.5268 6.58866 20.8629C6.72512 20.5913 6.80174 20.2844 6.80174 19.9602V10.3172C6.80174 9.96077 6.51243 9.67151 6.156 9.67151Z" fill="#44A4EC"/>
<path id="Vector_12" d="M4.0466 18.5478V21.9918H2.75513V18.5478C2.75513 18.1914 3.04444 17.9021 3.40086 17.9021C3.75729 17.9021 4.0466 18.1914 4.0466 18.5478Z" fill="#73C3FF"/>
</g>
</svg>
