<svg width="111" height="83" viewBox="0 0 111 83" fill="none" xmlns="http://www.w3.org/2000/svg">
<g id="No data-rafiki 1">
<g id="freepik--background-complete--inject-5">
<path id="Vector" d="M110.681 73.0511H0.530029V73.1062H110.681V73.0511Z" fill="#DBDBF0"/>
<path id="Vector_2" d="M99.6441 76.5958H92.3477V76.6509H99.6441V76.5958Z" fill="#DBDBF0"/>
<path id="Vector_3" d="M73.4985 77.195H71.5841V77.2501H73.4985V77.195Z" fill="#DBDBF0"/>
<path id="Vector_4" d="M92.1274 74.5514H87.8998V74.6065H92.1274V74.5514Z" fill="#DBDBF0"/>
<path id="Vector_5" d="M21.602 74.9215H12.0872V74.9766H21.602V74.9215Z" fill="#DBDBF0"/>
<path id="Vector_6" d="M24.9593 74.9215H23.5648V74.9766H24.9593V74.9215Z" fill="#DBDBF0"/>
<path id="Vector_7" d="M50.1312 75.8512H29.4933V75.9062H50.1312V75.8512Z" fill="#DBDBF0"/>
<path id="Vector_8" d="M52.7417 63.2257H10.2035C9.87024 63.2251 9.55084 63.0923 9.31541 62.8565C9.07998 62.6206 8.94775 62.301 8.94775 61.9677V2.17108C8.95065 1.83975 9.08416 1.52294 9.31928 1.28947C9.5544 1.05601 9.87214 0.924731 10.2035 0.924164H52.7417C53.0753 0.924164 53.3952 1.0567 53.6311 1.2926C53.8671 1.52851 53.9996 1.84847 53.9996 2.18209V61.9677C53.9996 62.3014 53.8671 62.6213 53.6311 62.8572C53.3952 63.0931 53.0753 63.2257 52.7417 63.2257ZM10.2035 0.968224C9.88484 0.968808 9.57946 1.09579 9.35436 1.32131C9.12926 1.54682 9.00283 1.85244 9.00283 2.17108V61.9677C9.00283 62.2864 9.12926 62.592 9.35436 62.8175C9.57946 63.043 9.88484 63.17 10.2035 63.1706H52.7417C53.0605 63.17 53.3661 63.0431 53.5916 62.8176C53.817 62.5922 53.9439 62.2866 53.9445 61.9677V2.17108C53.9439 1.85224 53.817 1.54663 53.5916 1.32117C53.3661 1.09572 53.0605 0.968807 52.7417 0.968224H10.2035Z" fill="#DBDBF0"/>
<path id="Vector_9" d="M100.395 63.2257H57.8548C57.5214 63.2251 57.2018 63.0924 56.966 62.8566C56.7302 62.6208 56.5975 62.3012 56.5969 61.9677V2.17108C56.6004 1.83955 56.7344 1.52274 56.9699 1.28934C57.2053 1.05593 57.5233 0.924725 57.8548 0.924164H100.395C100.726 0.92531 101.043 1.05684 101.278 1.29025C101.513 1.52365 101.646 1.84013 101.649 2.17108V61.9677C101.649 62.3006 101.517 62.6199 101.282 62.8557C101.047 63.0915 100.728 63.2245 100.395 63.2257ZM57.8548 0.968224C57.536 0.968807 57.2304 1.09572 57.0049 1.32117C56.7795 1.54663 56.6526 1.85224 56.652 2.17108V61.9677C56.6526 62.2866 56.7795 62.5922 57.0049 62.8176C57.2304 63.0431 57.536 63.17 57.8548 63.1706H100.395C100.714 63.17 101.02 63.0431 101.245 62.8176C101.471 62.5922 101.597 62.2866 101.598 61.9677V2.17108C101.597 1.85224 101.471 1.54663 101.245 1.32117C101.02 1.09572 100.714 0.968807 100.395 0.968224H57.8548Z" fill="#DBDBF0"/>
<path id="Vector_10" d="M64.3495 27.1534L94.7028 27.1534V7.27547L64.3495 7.27547V27.1534Z" fill="#E6E6E6"/>
<path id="Vector_11" d="M63.4219 27.1534L94.2687 27.1534V7.27547L63.4219 7.27547V27.1534Z" fill="#F0F0F0"/>
<path id="Vector_12" d="M64.3495 31.0527L94.7028 31.0527V27.1512L64.3495 27.1512V31.0527Z" fill="#E6E6E6"/>
<path id="Vector_13" d="M61.882 31.0527L92.7288 31.0527V27.1512L61.882 27.1512V31.0527Z" fill="#F0F0F0"/>
<path id="Vector_14" d="M92.9733 25.858V8.57304L64.7195 8.57304V25.858H92.9733Z" fill="#FAFAFA"/>
<path id="Vector_15" d="M86.6023 25.8558L82.9937 8.57304H77.3628L80.9713 25.8558H86.6023Z" fill="white"/>
<path id="Vector_16" d="M92.374 24.567C92.3864 24.567 92.3986 24.5645 92.41 24.5597C92.4213 24.555 92.4316 24.5479 92.4403 24.5391C92.4489 24.5303 92.4557 24.5198 92.4602 24.5084C92.4647 24.4969 92.4669 24.4846 92.4666 24.4723V9.41681C92.4666 9.39227 92.4568 9.36873 92.4395 9.35138C92.4221 9.33403 92.3986 9.32428 92.374 9.32428C92.3618 9.32397 92.3496 9.32616 92.3383 9.3307C92.3269 9.33525 92.3166 9.34205 92.308 9.35071C92.2993 9.35936 92.2925 9.36968 92.2879 9.38104C92.2834 9.3924 92.2812 9.40457 92.2815 9.41681V24.4723C92.2812 24.4846 92.2834 24.4969 92.2879 24.5084C92.2924 24.5198 92.2992 24.5303 92.3078 24.5391C92.3165 24.5479 92.3268 24.555 92.3381 24.5597C92.3495 24.5645 92.3617 24.567 92.374 24.567Z" fill="#F0F0F0"/>
<path id="Vector_17" d="M79.7618 25.8558L76.1532 8.57304H73.9568L77.5675 25.8558H79.7618Z" fill="white"/>
<path id="Vector_18" d="M64.8848 25.858V8.57304H64.7195V25.858H64.8848Z" fill="#E6E6E6"/>
<path id="Vector_19" opacity="0.6" d="M63.1179 10.5271H93.4712L93.5901 9.07535H63.2369L63.1179 10.5271Z" fill="#DBDBF0"/>
<path id="Vector_20" opacity="0.6" d="M63.1179 12.9064H93.4712L93.5901 11.4568H63.2369L63.1179 12.9064Z" fill="#DBDBF0"/>
<path id="Vector_21" opacity="0.6" d="M63.1179 15.2857H93.4712L93.5901 13.8361H63.2369L63.1179 15.2857Z" fill="#DBDBF0"/>
<path id="Vector_22" opacity="0.6" d="M63.1179 17.6671H93.4712L93.5901 16.2153H63.2369L63.1179 17.6671Z" fill="#DBDBF0"/>
<path id="Vector_23" opacity="0.6" d="M63.1179 20.0464H93.4712L93.5901 18.5946H63.2369L63.1179 20.0464Z" fill="#DBDBF0"/>
<path id="Vector_24" opacity="0.6" d="M63.1179 22.4257H93.4712L93.5901 20.9739H63.2369L63.1179 22.4257Z" fill="#DBDBF0"/>
<path id="Vector_25" d="M90.3451 58.5949H83.9806V59.8506H90.3451V58.5949Z" fill="#E6E6E6"/>
<path id="Vector_26" d="M71.9763 73.0511H73.1505V44.1761H71.9763V73.0511Z" fill="#E6E6E6"/>
<path id="Vector_27" d="M67.905 59.8506H83.9783V58.5949H67.905V59.8506Z" fill="#F5F5F5"/>
<path id="Vector_28" d="M90.3451 65.4617H83.9806V66.7175H90.3451V65.4617Z" fill="#E6E6E6"/>
<path id="Vector_29" d="M67.905 66.7153H83.9783V65.4596H67.905V66.7153Z" fill="#F5F5F5"/>
<path id="Vector_30" d="M90.3451 44.8635H83.9806V46.1192H90.3451V44.8635Z" fill="#E6E6E6"/>
<path id="Vector_31" d="M67.905 46.117H83.9783V44.8613H67.905V46.117Z" fill="#F5F5F5"/>
<path id="Vector_32" d="M90.3451 51.7281H83.9806V52.9838H90.3451V51.7281Z" fill="#E6E6E6"/>
<path id="Vector_33" d="M67.905 52.9838H83.9783V51.7281H67.905V52.9838Z" fill="#F5F5F5"/>
<path id="Vector_34" d="M88.0519 73.0511H89.2261V44.1761H88.0519V73.0511Z" fill="#E6E6E6"/>
<path id="Vector_35" d="M82.8041 73.0511H83.9783V44.1761H82.8041V73.0511Z" fill="#F5F5F5"/>
<path id="Vector_36" d="M67.9051 73.0511H69.0793V44.1761H67.9051V73.0511Z" fill="#F5F5F5"/>
<path id="Vector_37" d="M14.9334 73.0511H26.9575L26.9575 49.7233H14.9334L14.9334 73.0511Z" fill="#E6E6E6"/>
<path id="Vector_38" d="M18.1433 73.0511H14.9313V69.8303H21.5095L18.1433 73.0511Z" fill="#FAFAFA"/>
<path id="Vector_39" d="M47.7144 73.0511H59.7385V49.7233H47.7144V73.0511Z" fill="#E6E6E6"/>
<path id="Vector_40" d="M14.9335 71.9408H50.5189V49.7211H14.9335V71.9408Z" fill="#FAFAFA"/>
<path id="Vector_41" d="M47.3069 73.0511H50.5167V69.8303H43.9407L47.3069 73.0511Z" fill="#FAFAFA"/>
<path id="Vector_42" d="M17.4228 63.5627L48.0272 63.5627V58.0023H17.4228V63.5627Z" fill="#F0F0F0"/>
<path id="Vector_43" d="M17.4228 70.3105H48.0272V64.7501H17.4228V70.3105Z" fill="#F0F0F0"/>
<path id="Vector_44" d="M42.2112 58.5971H23.241C22.9734 58.5971 22.7168 58.4908 22.5275 58.3016C22.3383 58.1124 22.232 57.8557 22.232 57.5881V57.5198H43.218V57.5881C43.218 57.8553 43.112 58.1116 42.9233 58.3008C42.7345 58.49 42.4785 58.5965 42.2112 58.5971Z" fill="#FAFAFA"/>
<path id="Vector_45" d="M17.4228 56.8127L48.0272 56.8127V51.2522H17.4228V56.8127Z" fill="#F0F0F0"/>
<path id="Vector_46" d="M42.2112 51.847H23.241C22.9734 51.847 22.7168 51.7407 22.5275 51.5515C22.3383 51.3623 22.232 51.1057 22.232 50.8381V50.7698H43.218V50.8381C43.218 51.1053 43.112 51.3616 42.9233 51.5507C42.7345 51.7399 42.4785 51.8465 42.2112 51.847Z" fill="#FAFAFA"/>
<path id="Vector_47" d="M42.2112 65.3472H23.241C22.9734 65.3472 22.7168 65.2409 22.5275 65.0516C22.3383 64.8624 22.232 64.6058 22.232 64.3382V64.2699H43.218V64.3382C43.218 64.6054 43.112 64.8617 42.9233 65.0509C42.7345 65.24 42.4785 65.3466 42.2112 65.3472Z" fill="#FAFAFA"/>
<path id="Vector_48" d="M16.8479 27.1534L47.2012 27.1534V7.27547L16.8479 7.27547L16.8479 27.1534Z" fill="#E6E6E6"/>
<path id="Vector_49" d="M15.9226 27.1534L46.7693 27.1534V7.27547L15.9226 7.27547L15.9226 27.1534Z" fill="#F0F0F0"/>
<path id="Vector_50" d="M16.8479 31.0527L47.2012 31.0527V27.1512L16.8479 27.1512V31.0527Z" fill="#E6E6E6"/>
<path id="Vector_51" d="M14.3782 31.0527L45.225 31.0527V27.1512L14.3782 27.1512V31.0527Z" fill="#F0F0F0"/>
<path id="Vector_52" d="M45.4717 25.858V8.57304L17.2179 8.57304V25.858H45.4717Z" fill="#FAFAFA"/>
<path id="Vector_53" d="M39.1006 25.8558L35.492 8.57304H29.8611L33.4696 25.8558H39.1006Z" fill="white"/>
<path id="Vector_54" d="M44.8703 24.567C44.8826 24.567 44.8948 24.5645 44.9062 24.5597C44.9176 24.555 44.9279 24.5479 44.9365 24.5391C44.9451 24.5303 44.9519 24.5198 44.9564 24.5084C44.9609 24.4969 44.9631 24.4846 44.9628 24.4723V9.41681C44.9631 9.40457 44.9609 9.3924 44.9564 9.38104C44.9518 9.36968 44.945 9.35936 44.9364 9.35071C44.9277 9.34205 44.9174 9.33525 44.906 9.3307C44.8947 9.32616 44.8825 9.32397 44.8703 9.32428C44.8457 9.32428 44.8222 9.33403 44.8048 9.35138C44.7875 9.36873 44.7777 9.39227 44.7777 9.41681V24.4723C44.7774 24.4846 44.7796 24.4969 44.7841 24.5084C44.7887 24.5198 44.7954 24.5303 44.804 24.5391C44.8127 24.5479 44.823 24.555 44.8343 24.5597C44.8457 24.5645 44.8579 24.567 44.8703 24.567Z" fill="#F0F0F0"/>
<path id="Vector_55" d="M32.2602 25.8558L28.6516 8.57304H26.4552L30.0638 25.8558H32.2602Z" fill="white"/>
<path id="Vector_56" d="M17.3831 25.858V8.57304H17.2178V25.858H17.3831Z" fill="#E6E6E6"/>
<path id="Vector_57" opacity="0.6" d="M15.6141 10.5271H45.9674L46.0864 9.07535H15.7331L15.6141 10.5271Z" fill="#DBDBF0"/>
<path id="Vector_58" opacity="0.6" d="M15.6141 11.3466H45.9674L46.0864 9.89485H15.7331L15.6141 11.3466Z" fill="#DBDBF0"/>
<path id="Vector_59" opacity="0.6" d="M15.6141 12.164H45.9674L46.0864 10.7144H15.7331L15.6141 12.164Z" fill="#DBDBF0"/>
<path id="Vector_60" opacity="0.6" d="M15.6141 12.9835H45.9674L46.0864 11.5317H15.7331L15.6141 12.9835Z" fill="#DBDBF0"/>
<path id="Vector_61" opacity="0.6" d="M15.6141 13.8008H45.9674L46.0864 12.3512H15.7331L15.6141 13.8008Z" fill="#DBDBF0"/>
<path id="Vector_62" opacity="0.6" d="M15.6141 14.6204H45.9674L46.0864 13.1686H15.7331L15.6141 14.6204Z" fill="#DBDBF0"/>
<path id="Vector_63" d="M21.6834 49.0096H22.7321V37.3137H21.6834V49.0096Z" fill="#F5F5F5"/>
<path id="Vector_64" d="M21.8156 49.0029H22.113V37.3071H21.8156V49.0029Z" fill="#FAFAFA"/>
<path id="Vector_65" d="M22.2365 49.0029H22.3533V37.3071H22.2365V49.0029Z" fill="#FAFAFA"/>
<path id="Vector_66" d="M26.0918 49.7233H18.3283C18.3283 49.4639 18.4314 49.2151 18.6148 49.0317C18.7983 48.8482 19.0471 48.7452 19.3065 48.7452H25.1115C25.3709 48.7452 25.6197 48.8482 25.8031 49.0317C25.9865 49.2151 26.0896 49.4639 26.0896 49.7233H26.0918Z" fill="#F0F0F0"/>
<path id="Vector_67" d="M20.3221 44.5749C20.402 44.5743 20.4784 44.5423 20.5349 44.4858C20.5913 44.4293 20.6233 44.3529 20.6239 44.273V36.6131C20.6239 36.5331 20.5921 36.4563 20.5355 36.3997C20.4789 36.3431 20.4021 36.3113 20.3221 36.3113C20.2823 36.311 20.2428 36.3186 20.2059 36.3337C20.169 36.3487 20.1355 36.3709 20.1072 36.3989C20.079 36.427 20.0566 36.4604 20.0412 36.4971C20.0259 36.5339 20.0181 36.5733 20.0181 36.6131V44.2819C20.0209 44.3606 20.0542 44.4351 20.1109 44.4897C20.1676 44.5444 20.2433 44.5749 20.3221 44.5749Z" fill="#F0F0F0"/>
<path id="Vector_68" d="M17.5088 40.0939H26.9047L25.823 33.5289H18.5905L17.5088 40.0939Z" fill="#E0E0E0"/>
</g>
<g id="freepik--Shadow--inject-5">
<path id="freepik--path--inject-5" d="M55.6055 83C79.1961 83 98.32 81.8835 98.32 80.5062C98.32 79.1289 79.1961 78.0124 55.6055 78.0124C32.015 78.0124 12.8911 79.1289 12.8911 80.5062C12.8911 81.8835 32.015 83 55.6055 83Z" fill="#F5F5F5"/>
</g>
<g id="freepik--window-no-data--inject-5">
<path id="Vector_69" d="M23.4675 33.3877L23.2478 33.4035L23.5405 37.4664L23.7602 37.4506L23.4675 33.3877Z" fill="#82AE30"/>
<path id="Vector_70" d="M23.9096 39.548L23.6898 39.5638L23.8 41.0932L24.0197 41.0773L23.9096 39.548Z" fill="#82AE30"/>
<path id="Vector_71" d="M74.9284 58.238H27.7484C27.2232 58.2286 26.7201 58.0251 26.3361 57.6667C25.9521 57.3083 25.7144 56.8204 25.6688 56.2972L23.3512 24.1044C23.3296 23.8561 23.3603 23.6061 23.4413 23.3704C23.5222 23.1347 23.6516 22.9186 23.8212 22.7359C23.9908 22.5533 24.1967 22.4082 24.4257 22.31C24.6548 22.2118 24.9019 22.1626 25.151 22.1657H72.331C72.8558 22.1751 73.3586 22.3783 73.7426 22.7363C74.1265 23.0942 74.3645 23.5815 74.4106 24.1044L76.7282 56.2972C76.7498 56.5456 76.7191 56.7957 76.6381 57.0315C76.5572 57.2673 76.4278 57.4836 76.2583 57.6664C76.0888 57.8492 75.8829 57.9945 75.6538 58.0929C75.4248 58.1914 75.1777 58.2408 74.9284 58.238Z" fill="#82AE30"/>
<path id="Vector_72" d="M75.1089 58.238H27.9289C27.4038 58.2286 26.9007 58.0251 26.5167 57.6667C26.1327 57.3083 25.8949 56.8204 25.8493 56.2972L23.5317 24.1044C23.5102 23.8561 23.5408 23.6061 23.6218 23.3704C23.7028 23.1347 23.8322 22.9186 24.0017 22.7359C24.1713 22.5533 24.3772 22.4082 24.6063 22.31C24.8353 22.2118 25.0824 22.1626 25.3316 22.1657H72.5115C73.0364 22.1751 73.5392 22.3783 73.9231 22.7363C74.3071 23.0942 74.545 23.5815 74.5912 24.1044L76.9088 56.2972C76.9307 56.5456 76.9002 56.7959 76.8194 57.0319C76.7386 57.2678 76.6092 57.4842 76.4396 57.6671C76.27 57.85 76.064 57.9953 75.8348 58.0936C75.6056 58.192 75.3583 58.2411 75.1089 58.238Z" fill="#82AE30"/>
<path id="Vector_73" opacity="0.5" d="M75.1089 58.238H27.9289C27.4038 58.2286 26.9007 58.0251 26.5167 57.6667C26.1327 57.3083 25.8949 56.8204 25.8493 56.2972L23.5317 24.1044C23.5102 23.8561 23.5408 23.6061 23.6218 23.3704C23.7028 23.1347 23.8322 22.9186 24.0017 22.7359C24.1713 22.5533 24.3772 22.4082 24.6063 22.31C24.8353 22.2118 25.0824 22.1626 25.3316 22.1657H72.5115C73.0364 22.1751 73.5392 22.3783 73.9231 22.7363C74.3071 23.0942 74.545 23.5815 74.5912 24.1044L76.9088 56.2972C76.9307 56.5456 76.9002 56.7959 76.8194 57.0319C76.7386 57.2678 76.6092 57.4842 76.4396 57.6671C76.27 57.85 76.064 57.9953 75.8348 58.0936C75.6056 58.192 75.3583 58.2411 75.1089 58.238Z" fill="white"/>
<path id="Vector_74" d="M72.5821 23.1351H25.4022H25.2435C24.0385 23.2342 24.2852 25.0693 25.5013 25.0693H72.7606C73.9788 25.0693 73.9612 23.2342 72.7407 23.1351H72.5821Z" fill="#82AE30"/>
<path id="Vector_75" d="M26.6315 24.1044C26.6361 24.1612 26.6288 24.2183 26.61 24.2721C26.5911 24.3259 26.5613 24.3751 26.5222 24.4166C26.4832 24.4582 26.4359 24.491 26.3834 24.5131C26.3309 24.5352 26.2743 24.5461 26.2173 24.545C26.0976 24.5433 25.9827 24.4973 25.8948 24.416C25.807 24.3346 25.7523 24.2236 25.7415 24.1044C25.7368 24.0478 25.7441 23.9908 25.7628 23.9372C25.7815 23.8836 25.8112 23.8344 25.85 23.7929C25.8888 23.7514 25.9358 23.7185 25.988 23.6963C26.0403 23.674 26.0966 23.663 26.1534 23.6638C26.2735 23.6649 26.389 23.7106 26.4773 23.792C26.5656 23.8734 26.6206 23.9847 26.6315 24.1044Z" fill="#FAFAFA"/>
<path id="Vector_76" d="M28.1449 24.1044C28.1495 24.1612 28.1422 24.2183 28.1234 24.2721C28.1046 24.3259 28.0747 24.3751 28.0357 24.4166C27.9966 24.4582 27.9493 24.491 27.8968 24.5131C27.8443 24.5352 27.7877 24.5461 27.7307 24.545C27.611 24.5433 27.4961 24.4973 27.4083 24.416C27.3204 24.3346 27.2658 24.2236 27.2549 24.1044C27.2503 24.0478 27.2575 23.9908 27.2762 23.9372C27.2949 23.8836 27.3246 23.8344 27.3634 23.7929C27.4022 23.7514 27.4492 23.7185 27.5015 23.6963C27.5537 23.674 27.6101 23.663 27.6669 23.6638C27.787 23.6649 27.9024 23.7106 27.9907 23.792C28.079 23.8734 28.134 23.9847 28.1449 24.1044Z" fill="#FAFAFA"/>
<path id="Vector_77" d="M29.6562 24.1044C29.6608 24.161 29.6535 24.2179 29.6349 24.2716C29.6162 24.3252 29.5865 24.3743 29.5477 24.4158C29.5089 24.4573 29.4619 24.4902 29.4096 24.5125C29.3574 24.5347 29.301 24.5458 29.2442 24.545C29.1244 24.5438 29.0092 24.498 28.9212 24.4166C28.8333 24.3351 28.7788 24.2238 28.7684 24.1044C28.7634 24.0477 28.7705 23.9906 28.789 23.9368C28.8076 23.883 28.8373 23.8338 28.8761 23.7922C28.915 23.7506 28.9621 23.7177 29.0146 23.6956C29.067 23.6735 29.1235 23.6626 29.1804 23.6638C29.3001 23.6655 29.415 23.7114 29.5028 23.7928C29.5907 23.8741 29.6453 23.9851 29.6562 24.1044Z" fill="#FAFAFA"/>
<path id="Vector_78" d="M73.8575 55.026H28.7286C28.538 55.0229 28.3553 54.949 28.2161 54.8187C28.0768 54.6884 27.991 54.5111 27.9752 54.3211L26.0696 27.8473C26.0611 27.7565 26.072 27.6649 26.1016 27.5786C26.1313 27.4923 26.1789 27.4133 26.2414 27.3468C26.304 27.2804 26.3799 27.228 26.4642 27.1931C26.5485 27.1582 26.6393 27.1417 26.7305 27.1446H71.8704C72.0609 27.1472 72.2435 27.2206 72.3828 27.3505C72.5221 27.4804 72.608 27.6575 72.6238 27.8473L74.5317 54.3211C74.5399 54.4131 74.5284 54.5058 74.4979 54.593C74.4674 54.6802 74.4185 54.7599 74.3547 54.8266C74.2908 54.8934 74.2134 54.9458 74.1277 54.9801C74.0419 55.0145 73.9498 55.0302 73.8575 55.026Z" fill="white"/>
<path id="Vector_79" d="M54.8411 44.9406L54.1053 34.7362L51.8803 33.3967H45.7537L46.5864 44.9406H54.8411Z" fill="white"/>
<path id="Vector_80" d="M54.8411 45.0463H46.5863C46.559 45.0469 46.5325 45.037 46.5124 45.0185C46.4923 45 46.4801 44.9745 46.4784 44.9472L45.6479 33.4033C45.6468 33.3889 45.6488 33.3743 45.6537 33.3606C45.6587 33.347 45.6664 33.3345 45.6765 33.324C45.6862 33.3132 45.6981 33.3044 45.7114 33.2983C45.7246 33.2923 45.739 33.289 45.7536 33.2888H51.8802C51.8995 33.2895 51.9184 33.2947 51.9353 33.3042L54.1603 34.6436C54.1753 34.6522 54.188 34.6643 54.1972 34.6789C54.2064 34.6935 54.2119 34.7102 54.2132 34.7274L54.9446 44.9318C54.9461 44.9466 54.9444 44.9616 54.9394 44.9757C54.9345 44.9898 54.9265 45.0026 54.916 45.0133C54.9064 45.0236 54.8948 45.0318 54.8819 45.0375C54.8691 45.0432 54.8552 45.0462 54.8411 45.0463ZM46.6899 44.826H54.7243L54.0017 34.7912L51.8604 33.5025H45.8682L46.6899 44.826Z" fill="#82AE30"/>
<path id="Vector_81" d="M54.1053 34.7362L51.8802 33.3967L52.6976 35.1724L54.1053 34.7362Z" fill="#DBDBF0"/>
<path id="Vector_82" d="M52.6977 35.2781C52.6773 35.278 52.6575 35.2721 52.6403 35.2612C52.6232 35.2503 52.6094 35.2348 52.6007 35.2164L51.7834 33.4408C51.7739 33.4199 51.7711 33.3966 51.7754 33.3741C51.7798 33.3516 51.791 33.331 51.8076 33.3152C51.8251 33.3003 51.8468 33.2912 51.8698 33.2892C51.8927 33.2872 51.9156 33.2925 51.9354 33.3042L54.1605 34.6436C54.1784 34.6544 54.1929 34.6701 54.2023 34.6888C54.2117 34.7075 54.2155 34.7286 54.2133 34.7494C54.2105 34.7697 54.202 34.7887 54.1887 34.8043C54.1754 34.8199 54.158 34.8314 54.1384 34.8375L52.7285 35.2781H52.6977ZM52.1227 33.6655L52.7549 35.0424L53.8565 34.7053L52.1227 33.6655Z" fill="#82AE30"/>
<path id="Vector_83" d="M49.2168 38.5959C49.2201 38.6557 49.2112 38.7157 49.1905 38.7719C49.1699 38.8282 49.1379 38.8797 49.0967 38.9232C49.0554 38.9667 49.0057 39.0014 48.9506 39.025C48.8955 39.0487 48.8362 39.0608 48.7762 39.0607C48.6505 39.0585 48.53 39.0097 48.4381 38.9239C48.3461 38.838 48.2892 38.7212 48.2784 38.5959C48.2727 38.5354 48.28 38.4744 48.2997 38.4169C48.3195 38.3595 48.3513 38.3069 48.393 38.2627C48.4347 38.2185 48.4853 38.1837 48.5415 38.1606C48.5978 38.1375 48.6582 38.1267 48.719 38.1288C48.8449 38.1316 48.9654 38.1808 49.0573 38.267C49.1492 38.3532 49.206 38.4703 49.2168 38.5959Z" fill="#82AE30"/>
<path id="Vector_84" d="M52.2349 38.5959C52.2403 38.6562 52.2327 38.717 52.2128 38.7742C52.1929 38.8314 52.1611 38.8837 52.1194 38.9276C52.0777 38.9716 52.0272 39.0062 51.9712 39.0291C51.9151 39.0521 51.8549 39.0628 51.7943 39.0607C51.6683 39.0585 51.5476 39.0099 51.4553 38.9241C51.363 38.8383 51.3056 38.7214 51.2943 38.5959C51.2906 38.5358 51.2994 38.4757 51.3199 38.4191C51.3404 38.3626 51.3723 38.3109 51.4136 38.2671C51.4548 38.2233 51.5047 38.1885 51.5599 38.1647C51.6152 38.1409 51.6747 38.1287 51.7349 38.1288C51.8614 38.1306 51.9827 38.1794 52.0751 38.2658C52.1676 38.3521 52.2245 38.4698 52.2349 38.5959Z" fill="#82AE30"/>
<path id="Vector_85" d="M53.0897 41.6228C53.0629 41.6224 53.0372 41.612 53.0177 41.5937C52.9981 41.5753 52.9861 41.5504 52.9839 41.5237C52.9288 40.7725 51.7524 40.1622 50.3623 40.1622C49.4392 40.1622 48.6109 40.4376 48.2011 40.8782C48.117 40.9594 48.051 41.0576 48.0077 41.1662C47.9644 41.2748 47.9447 41.3915 47.95 41.5083C47.951 41.5228 47.9492 41.5373 47.9446 41.551C47.94 41.5648 47.9327 41.5775 47.9232 41.5884C47.904 41.6105 47.8768 41.6241 47.8476 41.6262C47.8183 41.6282 47.7895 41.6186 47.7674 41.5993C47.7453 41.5801 47.7317 41.5529 47.7297 41.5237C47.7231 41.3777 47.7472 41.2319 47.8003 41.0957C47.8534 40.9595 47.9344 40.8359 48.0381 40.7328C48.4787 40.2504 49.3754 39.9485 50.3557 39.9485C51.8824 39.9485 53.1271 40.6337 53.1888 41.5083C53.1897 41.5222 53.1878 41.5361 53.1833 41.5493C53.1788 41.5625 53.1718 41.5746 53.1626 41.5851C53.1533 41.5955 53.1422 41.604 53.1296 41.6101C53.1171 41.6162 53.1035 41.6198 53.0897 41.6206V41.6228Z" fill="#82AE30"/>
<path id="Vector_86" d="M47.4919 37.653C47.4651 37.6525 47.4393 37.6423 47.4192 37.6244C47.3992 37.6042 47.3879 37.5768 47.3879 37.5484C47.3879 37.5199 47.3992 37.4926 47.4192 37.4724L47.8885 36.9679C47.9086 36.9485 47.9354 36.9377 47.9634 36.9377C47.9913 36.9377 48.0182 36.9485 48.0383 36.9679C48.0481 36.9777 48.056 36.9894 48.0613 37.0022C48.0666 37.0151 48.0694 37.0289 48.0694 37.0428C48.0694 37.0567 48.0666 37.0705 48.0613 37.0833C48.056 37.0962 48.0481 37.1078 48.0383 37.1177L47.569 37.6222C47.5589 37.6322 47.5469 37.6402 47.5336 37.6455C47.5204 37.6508 47.5062 37.6533 47.4919 37.653Z" fill="#82AE30"/>
<path id="Vector_87" d="M52.8695 37.653C52.8428 37.6518 52.8172 37.6417 52.7968 37.6244L52.2571 37.1199C52.2469 37.11 52.2388 37.0982 52.2332 37.0852C52.2277 37.0721 52.2249 37.0581 52.2249 37.0439C52.2249 37.0297 52.2277 37.0157 52.2332 37.0026C52.2388 36.9895 52.2469 36.9777 52.2571 36.9679C52.2772 36.9485 52.304 36.9377 52.332 36.9377C52.3599 36.9377 52.3868 36.9485 52.4069 36.9679L52.9466 37.4724C52.9565 37.4822 52.9643 37.4939 52.9696 37.5067C52.975 37.5196 52.9777 37.5333 52.9777 37.5473C52.9777 37.5612 52.975 37.575 52.9696 37.5878C52.9643 37.6007 52.9565 37.6123 52.9466 37.6222C52.9257 37.6417 52.8982 37.6527 52.8695 37.653Z" fill="#82AE30"/>
<path id="Vector_88" d="M45.0884 47.2207H45.5863L46.3044 48.1768L46.2362 47.2207H46.7384L46.8618 48.9479H46.3529L45.6391 47.9984L45.7074 48.9479H45.2051L45.0884 47.2207Z" fill="#82AE30"/>
<path id="Vector_89" d="M47.0865 48.0843C47.0695 47.967 47.0776 47.8474 47.1103 47.7335C47.143 47.6196 47.1994 47.5139 47.276 47.4234C47.3597 47.3411 47.46 47.2775 47.5701 47.2368C47.6802 47.1962 47.7978 47.1794 47.9149 47.1877C48.1631 47.1742 48.407 47.2571 48.5956 47.419C48.7684 47.5911 48.8686 47.8229 48.8754 48.0667C48.8936 48.2348 48.8709 48.4049 48.8093 48.5624C48.7523 48.6892 48.6567 48.7948 48.5361 48.8642C48.3915 48.9417 48.2287 48.979 48.0647 48.9721C47.8961 48.9775 47.7285 48.9459 47.5734 48.8796C47.4376 48.8144 47.323 48.712 47.243 48.5844C47.1484 48.434 47.0945 48.2617 47.0865 48.0843ZM47.6219 48.0843C47.6197 48.2195 47.6632 48.3514 47.7452 48.4588C47.7796 48.4967 47.8219 48.5266 47.8691 48.5464C47.9163 48.5662 47.9673 48.5754 48.0184 48.5734C48.0673 48.5768 48.1162 48.5683 48.1611 48.5488C48.2059 48.5292 48.2454 48.4991 48.2762 48.461C48.3394 48.3407 48.3604 48.2026 48.3357 48.0689C48.3366 47.9393 48.293 47.8133 48.2123 47.712C48.177 47.6748 48.1342 47.6455 48.0867 47.6262C48.0392 47.6068 47.9882 47.5978 47.9369 47.5996C47.889 47.5976 47.8412 47.6069 47.7976 47.6268C47.7539 47.6467 47.7156 47.6766 47.6858 47.7142C47.6213 47.8277 47.5987 47.9602 47.6219 48.0887V48.0843Z" fill="#82AE30"/>
<path id="Vector_90" d="M49.9108 47.2207H50.7039C50.8346 47.2166 50.9649 47.2383 51.0872 47.2846C51.184 47.3252 51.27 47.3878 51.3383 47.4675C51.4077 47.5483 51.4608 47.6418 51.4947 47.7428C51.5305 47.8513 51.5527 47.9638 51.5608 48.0777C51.5777 48.2217 51.5665 48.3676 51.5278 48.5073C51.4974 48.604 51.4437 48.6918 51.3714 48.7628C51.311 48.8267 51.2351 48.8738 51.1511 48.8994C51.0486 48.9291 50.9427 48.9454 50.836 48.9479H50.0452L49.9108 47.2207ZM50.4725 47.6129L50.5408 48.5557H50.6708C50.7512 48.561 50.8317 48.5482 50.9065 48.5183C50.9559 48.4897 50.9922 48.4431 51.0079 48.3883C51.0331 48.2905 51.0391 48.1888 51.0255 48.0887C51.0297 47.9543 50.9886 47.8224 50.9087 47.7142C50.8678 47.6772 50.8197 47.6491 50.7674 47.6316C50.715 47.6142 50.6596 47.6078 50.6047 47.6129H50.4725Z" fill="#82AE30"/>
<path id="Vector_91" d="M52.8408 48.6615H52.235L52.1711 48.9479H51.627L52.1513 47.2207H52.7417L53.5149 48.9479H52.9554L52.8408 48.6615ZM52.702 48.2892L52.4685 47.6679L52.3231 48.2892H52.702Z" fill="#82AE30"/>
<path id="Vector_92" d="M53.2638 47.2207H54.8852L54.9161 47.6481H54.3719L54.4644 48.9479H53.9313L53.8388 47.6481H53.2946L53.2638 47.2207Z" fill="#82AE30"/>
<path id="Vector_93" d="M56.1277 48.6615H55.5219L55.458 48.9479H54.9138L55.4381 47.2207H56.0197L56.7908 48.9479H56.2334L56.1277 48.6615ZM55.9889 48.2892L55.7532 47.6679L55.6056 48.2892H55.9889Z" fill="#82AE30"/>
</g>
<g id="freepik--Character--inject-5">
<path id="Vector_94" d="M78.4487 26.9374C78.6448 26.8383 78.8893 26.7171 79.0964 26.5916C79.3035 26.466 79.537 26.3448 79.7573 26.2127C80.1869 25.9461 80.6231 25.6839 81.0351 25.3931C81.8625 24.827 82.6381 24.1885 83.3527 23.4853C83.443 23.4016 83.5223 23.3091 83.6082 23.2187L83.7338 23.0844L83.7955 23.0183L83.8263 22.983C83.7955 23.0425 83.8263 23.0249 83.8263 22.9676C83.8457 22.8889 83.8567 22.8084 83.8594 22.7275C83.8543 22.259 83.8004 21.7924 83.6985 21.3352C83.5025 20.3482 83.2051 19.3304 82.9121 18.3346L83.7668 17.9601C84.3063 18.9155 84.7569 19.9184 85.1129 20.9562C85.3128 21.5171 85.4402 22.1012 85.4918 22.6944C85.5053 22.8789 85.4994 23.0642 85.4742 23.2474C85.4415 23.5064 85.3495 23.7544 85.2054 23.9722L85.168 24.0229L85.1393 24.0581L85.1063 24.1L85.038 24.1837L84.9014 24.3489C84.8111 24.4568 84.7229 24.5692 84.626 24.6727C83.8726 25.5088 83.0322 26.2621 82.119 26.9198C81.6784 27.2459 81.2113 27.5587 80.7333 27.8429C80.4975 27.9861 80.2574 28.1227 80.0129 28.2571C79.7683 28.3914 79.5304 28.5148 79.2484 28.647L78.4487 26.9374Z" fill="#FFB573"/>
<path id="Vector_95" d="M76.4881 78.7306C76.653 78.7264 76.817 78.7043 76.9772 78.6645C76.9853 78.662 76.9926 78.6574 76.9984 78.6513C77.0042 78.6451 77.0083 78.6375 77.0102 78.6292C77.0113 78.6208 77.01 78.6122 77.0065 78.6044C77.003 78.5966 76.9974 78.59 76.9904 78.5851C76.9265 78.5433 76.3669 78.182 76.151 78.2789C76.1271 78.2901 76.1066 78.3074 76.0915 78.3291C76.0764 78.3507 76.0673 78.376 76.0651 78.4023C76.0565 78.4439 76.0587 78.4869 76.0714 78.5274C76.0841 78.5679 76.107 78.6045 76.1378 78.6336C76.239 78.7072 76.3635 78.7416 76.4881 78.7306ZM76.8516 78.6028C76.5321 78.6667 76.2898 78.6557 76.1907 78.5697C76.1708 78.5494 76.1564 78.5245 76.1487 78.4971C76.141 78.4698 76.1403 78.441 76.1466 78.4133C76.1474 78.4016 76.1513 78.3904 76.1579 78.3807C76.1645 78.371 76.1735 78.3633 76.1841 78.3582C76.3008 78.3076 76.6247 78.4706 76.8516 78.6028Z" fill="#82AE30"/>
<path id="Vector_96" d="M76.975 78.6644H76.997C77.0035 78.6605 77.0088 78.655 77.0127 78.6484C77.0165 78.6419 77.0187 78.6345 77.019 78.627C77.019 78.6027 77.019 78.0718 76.8163 77.8956C76.7921 77.8722 76.7628 77.8546 76.7307 77.8443C76.6987 77.834 76.6646 77.8312 76.6313 77.8361C76.5965 77.8364 76.5629 77.8485 76.5361 77.8706C76.5092 77.8926 76.4907 77.9232 76.4837 77.9573C76.4418 78.1776 76.7767 78.5631 76.9529 78.6644C76.9601 78.6665 76.9678 78.6665 76.975 78.6644ZM76.6599 77.9176C76.6958 77.9177 76.7303 77.931 76.7569 77.955C76.8731 78.1264 76.9331 78.3296 76.9287 78.5366C76.7525 78.3956 76.5432 78.096 76.5696 77.9705C76.5696 77.9506 76.585 77.9242 76.6401 77.9176H76.6599Z" fill="#82AE30"/>
<path id="Vector_97" d="M76.8031 21.4277C76.5828 22.5292 76.1422 24.7322 76.9022 25.4702C76.9022 25.4702 76.6026 26.5717 74.5692 26.5717C72.3309 26.5717 73.5007 25.4702 73.5007 25.4702C74.7212 25.1794 74.6882 24.274 74.4767 23.4214L76.8031 21.4277Z" fill="#FFB573"/>
<path id="Vector_98" d="M73.0712 25.9108C72.7209 25.9593 73.0205 25.0494 73.1615 24.9547C73.4919 24.7344 77.757 24.4282 77.7284 24.9547C77.7107 25.175 77.605 25.6156 77.4199 25.761C77.2349 25.9064 76.1378 25.4526 73.0712 25.9108Z" fill="#093557"/>
<path id="Vector_99" d="M73.7673 25.598C73.4875 25.6928 73.5139 24.7763 73.6087 24.6661C73.829 24.4106 77.2811 23.525 77.3824 24.0251C77.4221 24.2454 77.4419 24.686 77.3229 24.8424C77.204 24.9988 76.1906 24.741 73.7673 25.598Z" fill="#093557"/>
<path id="Vector_100" d="M72.4829 19.4538C72.4691 19.4544 72.4553 19.4517 72.4426 19.4459C72.43 19.4402 72.4189 19.4316 72.4102 19.4207C72.343 19.334 72.2563 19.2643 72.1572 19.2173C72.0581 19.1702 71.9493 19.1471 71.8397 19.1497C71.8282 19.1513 71.8165 19.1505 71.8054 19.1474C71.7942 19.1443 71.7838 19.139 71.7748 19.1318C71.7657 19.1246 71.7582 19.1157 71.7527 19.1055C71.7472 19.0953 71.7438 19.0842 71.7427 19.0726C71.7409 19.0499 71.7478 19.0274 71.7622 19.0098C71.7766 18.9921 71.7972 18.9807 71.8198 18.9779C71.9585 18.9708 72.0968 18.9974 72.223 19.0553C72.3493 19.1132 72.4596 19.2008 72.5446 19.3106C72.5594 19.3284 72.5665 19.3514 72.5645 19.3745C72.5624 19.3976 72.5513 19.419 72.5336 19.4339C72.5187 19.4447 72.5012 19.4515 72.4829 19.4538Z" fill="#093557"/>
<path id="Vector_101" d="M72.0556 20.5311C71.9556 20.8825 71.8074 21.2184 71.615 21.529C71.6958 21.5755 71.7858 21.6037 71.8786 21.6117C71.9715 21.6197 72.065 21.6073 72.1525 21.5753L72.0556 20.5311Z" fill="#FF5652"/>
<path id="Vector_102" d="M72.1635 20.2645C72.1789 20.4121 72.1106 20.5399 72.0137 20.5487C71.9167 20.5575 71.8264 20.4473 71.8132 20.2975C71.8 20.1477 71.8661 20.0222 71.9608 20.0133C72.0555 20.0045 72.1481 20.1147 72.1635 20.2645Z" fill="#093557"/>
<path id="Vector_103" d="M72.0049 20.0177L71.6392 19.9494C71.6392 19.9494 71.8484 20.2094 72.0049 20.0177Z" fill="#093557"/>
<path id="Vector_104" d="M79.1119 78.6226H77.2657L77.4111 74.3487H79.2573L79.1119 78.6226Z" fill="#FFB573"/>
<path id="Vector_105" d="M77.1204 78.4089H79.1934C79.2291 78.408 79.2639 78.4203 79.2912 78.4435C79.3184 78.4666 79.3361 78.499 79.341 78.5344L79.5767 80.1735C79.5814 80.2149 79.5772 80.2569 79.5645 80.2966C79.5518 80.3363 79.5308 80.3729 79.5029 80.4039C79.475 80.4349 79.4408 80.4597 79.4027 80.4766C79.3645 80.4934 79.3232 80.502 79.2815 80.5017C78.5589 80.4907 78.2109 80.4467 77.2988 80.4467C76.737 80.4467 75.9175 80.5061 75.1442 80.5061C74.371 80.5061 74.3269 79.7395 74.6508 79.6712C76.096 79.3584 76.3251 78.931 76.8119 78.5212C76.8986 78.4492 77.0076 78.4095 77.1204 78.4089Z" fill="#093557"/>
<g id="Group" opacity="0.2">
<path id="Vector_106" d="M79.2573 74.3487H77.4112L77.3363 76.5517H79.1824L79.2573 74.3487Z" fill="black"/>
</g>
<path id="Vector_107" d="M71.7691 28.0213C70.6395 27.5821 69.5329 27.0858 68.4536 26.5343C67.3388 25.9895 66.2768 25.3428 65.2812 24.6022C65.0153 24.3939 64.7636 24.1679 64.5278 23.9259C64.4661 23.8598 64.4044 23.7981 64.345 23.721C64.2751 23.6422 64.2104 23.5591 64.1511 23.4721C63.9886 23.2354 63.8872 22.9622 63.8559 22.6768C63.8316 22.4062 63.8685 22.1336 63.9638 21.8793C64.0402 21.6748 64.1448 21.482 64.2745 21.3065C64.4873 21.0155 64.7385 20.7546 65.0213 20.531C65.5204 20.1336 66.0594 19.7888 66.6295 19.5022C66.9027 19.3568 67.1802 19.2268 67.4622 19.1057C67.7442 18.9845 68.0218 18.8699 68.3236 18.7664L68.7136 19.6146C67.753 20.2204 66.7573 20.8879 66.0259 21.6325C65.8622 21.7984 65.7181 21.9824 65.5963 22.1811C65.4905 22.3551 65.4927 22.4851 65.5104 22.4741C65.528 22.4631 65.5104 22.4741 65.5412 22.4961L65.6293 22.5909C65.6624 22.6305 65.7086 22.6702 65.7505 22.712C65.9371 22.8838 66.1351 23.0427 66.3431 23.1879C66.7979 23.5099 67.2716 23.8041 67.7618 24.0691C68.2575 24.3467 68.7686 24.6088 69.2885 24.86C70.3284 25.3578 71.4034 25.8359 72.4587 26.2721L71.7691 28.0213Z" fill="#FFB573"/>
<path id="Vector_108" d="M69.2642 19.022L69.5682 18.3611L68.1759 17.8874C68.1759 17.8874 67.7353 19.1894 68.2574 19.7886C68.4756 19.7543 68.6819 19.6662 68.8576 19.5324C69.0334 19.3986 69.1731 19.2232 69.2642 19.022Z" fill="#FFB573"/>
<path id="Vector_109" d="M69.5617 16.9313L68.4536 16.6097L68.176 17.8786L69.5617 18.3611V16.9313Z" fill="#FFB573"/>
<path id="Vector_110" d="M83.8814 18.4249L84.0422 16.8828L82.6147 17.2265C82.6147 17.2265 82.5927 18.6761 83.3483 18.9052L83.8814 18.4249Z" fill="#FFB573"/>
<path id="Vector_111" d="M83.3548 15.7968L82.423 16.2307L82.6146 17.2155L84.0422 16.8784L83.3548 15.7968Z" fill="#FFB573"/>
<path id="Vector_112" d="M77.0939 19.2643C77.1622 21.095 77.2283 21.8683 76.4022 22.8927C75.1574 24.4348 72.8949 24.1154 72.2825 22.3419C71.7317 20.747 71.7141 18.0218 73.4237 17.123C73.7995 16.9231 74.2202 16.8227 74.6458 16.8311C75.0714 16.8395 75.4878 16.9565 75.8555 17.171C76.2231 17.3855 76.5299 17.6904 76.7466 18.0568C76.9634 18.4231 77.0829 18.8388 77.0939 19.2643Z" fill="#FFB573"/>
<path id="Vector_113" d="M76.2965 22.8905C78.0942 22.1128 79.275 20.4672 78.7771 17.9161C78.299 15.4685 76.6468 15.2262 75.9638 15.7329C75.2809 16.2396 73.578 15.4839 72.5557 16.3431C70.7933 17.8345 72.4588 19.4273 73.3312 20.3901C73.8511 21.4607 74.5341 23.6505 76.2965 22.8905Z" fill="#093557"/>
<path id="Vector_114" d="M75.5496 17.4776C75.7689 17.759 76.0658 17.9699 76.4036 18.0844C76.7414 18.199 77.1053 18.2121 77.4505 18.1221C77.7957 18.0322 78.1069 17.8431 78.3459 17.5783C78.5848 17.3135 78.741 16.9845 78.7952 16.632C78.8493 16.2794 78.799 15.9187 78.6505 15.5944C78.502 15.2701 78.2617 14.9964 77.9594 14.8071C77.6571 14.6177 77.306 14.521 76.9494 14.529C76.5928 14.5369 76.2464 14.6491 75.9528 14.8516C75.5512 15.1465 75.2832 15.5888 75.2076 16.0812C75.132 16.5736 75.255 17.0759 75.5496 17.4776Z" fill="#82AE30"/>
<path id="Vector_115" d="M76.0166 15.9047C75.7588 14.4287 77.1533 13.2919 79.0215 13.8405C80.8897 14.389 79.9027 16.0435 79.5172 17.3653C79.1317 18.6871 80.1406 19.9473 80.5592 18.9405C80.9778 17.9337 80.2728 17.6187 80.2728 17.6187C80.2728 17.6187 82.2555 18.132 80.4138 20.368C78.5721 22.6041 76.9044 20.1345 77.356 18.6783C77.7217 17.5085 76.2611 17.2992 76.0166 15.9047Z" fill="#093557"/>
<path id="Vector_116" d="M74.1506 16.4621C73.2981 16.0215 71.8551 15.658 71.0334 17.0415C70.6456 17.7024 70.7954 18.5836 70.7954 18.5836L73.3047 18.7488L74.1506 16.4621Z" fill="#093557"/>
<path id="Vector_117" d="M70.5003 18.1474C70.4855 18.1462 70.4717 18.1394 70.4619 18.1283C70.452 18.1172 70.4468 18.1027 70.4474 18.0879C70.4474 18.0504 70.5113 17.1648 71.0467 16.6096C72.3398 15.2658 73.8555 16.3893 74.2873 16.7528C74.2966 16.7627 74.302 16.7756 74.3023 16.7891C74.3027 16.8026 74.2981 16.8158 74.2894 16.8262C74.2807 16.8365 74.2685 16.8433 74.2551 16.8452C74.2417 16.8471 74.2281 16.844 74.2168 16.8366C73.8004 16.4797 72.3509 15.4112 71.1326 16.6846C70.6259 17.2111 70.5642 18.0857 70.5642 18.0945C70.564 18.1023 70.5621 18.1101 70.5587 18.1171C70.5552 18.1242 70.5503 18.1304 70.5443 18.1354C70.5382 18.1404 70.5312 18.1441 70.5236 18.1461C70.516 18.1482 70.5081 18.1486 70.5003 18.1474Z" fill="#093557"/>
<path id="Vector_118" d="M73.6372 20.3108C73.6273 20.6573 73.499 20.9901 73.2737 21.2537C72.9697 21.6105 72.6128 21.4343 72.5401 21.0334C72.4674 20.6787 72.5401 20.064 72.9235 19.8503C73.3068 19.6366 73.6416 19.9098 73.6372 20.3108Z" fill="#FFB573"/>
<path id="Vector_119" d="M73.2407 37.0801C73.2407 37.0801 73.3597 49.8907 74.47 57.0285C75.3688 62.7938 77.0277 76.1265 77.0277 76.1265H79.5458C79.5458 76.1265 79.7903 63.2543 79.3255 57.5528C78.1733 43.123 81.1496 40.4243 78.7483 37.0801H73.2407Z" fill="#093557"/>
<path id="Vector_120" opacity="0.1" d="M73.2407 37.0801C73.2407 37.0801 73.3597 49.8907 74.47 57.0285C75.3688 62.7938 77.0277 76.1265 77.0277 76.1265H79.5458C79.5458 76.1265 79.7903 63.2543 79.3255 57.5528C78.1733 43.123 81.1496 40.4243 78.7483 37.0801H73.2407Z" fill="white"/>
<path id="Vector_121" opacity="0.3" d="M74.5648 42.8917C75.446 46.758 74.7432 52.8472 74.2608 55.5283C73.7497 51.4571 73.4919 46.1808 73.3641 42.3101C73.8202 41.5743 74.252 41.5259 74.5648 42.8917Z" fill="black"/>
<path id="Vector_122" d="M76.6841 76.175H79.8895L80.057 75.0515L76.6665 74.9369L76.6841 76.175Z" fill="#82AE30"/>
<path id="Vector_123" d="M77.5984 26.2589C77.9002 25.6597 79.5216 25.283 80.4072 25.2852L81.0681 28.2284C81.0681 28.2284 79.3057 30.8478 78.5699 30.5702C77.7041 30.2508 76.9529 27.5521 77.5984 26.2589Z" fill="#82AE30"/>
<path id="Vector_124" opacity="0.4" d="M77.5984 26.2589C77.9002 25.6597 79.5216 25.283 80.4072 25.2852L81.0681 28.2284C81.0681 28.2284 79.3057 30.8478 78.5699 30.5702C77.7041 30.2508 76.9529 27.5521 77.5984 26.2589Z" fill="black"/>
<path id="Vector_125" d="M75.7302 75.4546C75.7339 75.4483 75.7358 75.441 75.7358 75.4337C75.7358 75.4264 75.7339 75.4191 75.7302 75.4128C75.7261 75.4043 75.7194 75.3974 75.711 75.3931C75.7027 75.3887 75.6932 75.3871 75.6839 75.3885C75.5914 75.404 74.7763 75.5317 74.6661 75.7653C74.6544 75.7865 74.6482 75.8104 74.6482 75.8346C74.6482 75.8589 74.6544 75.8828 74.6661 75.904C74.685 75.9389 74.7122 75.9685 74.7452 75.9904C74.7783 76.0123 74.8162 76.0258 74.8556 76.0296C75.1222 76.0561 75.5165 75.6859 75.7148 75.4612L75.7302 75.4546ZM74.7521 75.7939C74.827 75.6705 75.2499 75.556 75.5716 75.4965C75.2808 75.7917 75.0252 75.9569 74.8754 75.9371C74.8495 75.9345 74.8247 75.9255 74.8031 75.9109C74.7816 75.8963 74.764 75.8765 74.7521 75.8534C74.7472 75.845 74.7447 75.8355 74.7447 75.8258C74.7447 75.8162 74.7472 75.8067 74.7521 75.7983C74.7521 75.7983 74.7498 75.7961 74.7521 75.7939Z" fill="#82AE30"/>
<path id="Vector_126" d="M75.7303 75.4546C75.7339 75.4483 75.7359 75.4411 75.7359 75.4337C75.7359 75.4264 75.7339 75.4191 75.7303 75.4128C75.7171 75.3974 75.391 75.0206 75.0892 75.0008C75.0457 74.9972 75.0019 75.0025 74.9606 75.0165C74.9193 75.0306 74.8813 75.053 74.8491 75.0823C74.7587 75.1638 74.7675 75.2343 74.7896 75.2784C74.8843 75.4679 75.4703 75.5339 75.706 75.4833C75.7121 75.4809 75.7175 75.477 75.7218 75.472C75.726 75.467 75.7289 75.461 75.7303 75.4546ZM74.8689 75.1771C74.8785 75.1621 74.8904 75.1487 74.9041 75.1374C74.9272 75.1155 74.9546 75.0989 74.9847 75.0886C75.0147 75.0784 75.0466 75.0747 75.0782 75.0779C75.2831 75.1284 75.4672 75.2416 75.6047 75.4018C75.3425 75.4238 74.9196 75.3445 74.8623 75.2299C74.8586 75.2213 74.8573 75.2119 74.8584 75.2026C74.8596 75.1933 74.8632 75.1845 74.8689 75.1771Z" fill="#82AE30"/>
<path id="Vector_127" d="M77.6534 74.6726L75.9659 75.4238L75.2147 73.8574L74.2321 71.8086L74.1154 71.5707L75.8029 70.8195L75.9329 71.0882L76.8846 73.0732L77.6534 74.6726Z" fill="#FFB573"/>
<path id="Vector_128" opacity="0.2" d="M76.8846 73.0732L75.2147 73.8574L74.2322 71.8086L75.9329 71.0882L76.8846 73.0732Z" fill="black"/>
<path id="Vector_129" d="M71.2625 37.0801C71.2625 37.0801 65.8717 50.4921 67.3323 56.7928C68.6541 62.4964 74.4921 73.2978 74.4921 73.2978L76.7546 72.1655C76.7546 72.1655 73.1439 59.1258 72.7539 56.2927C71.9917 50.7851 76.889 43.0019 76.889 37.0801H71.2625Z" fill="#093557"/>
<path id="Vector_130" opacity="0.1" d="M71.2625 37.0801C71.2625 37.0801 65.8717 50.4921 67.3323 56.7928C68.6541 62.4964 74.4921 73.2978 74.4921 73.2978L76.7546 72.1655C76.7546 72.1655 73.1439 59.1258 72.7539 56.2927C71.9917 50.7851 76.889 43.0019 76.889 37.0801H71.2625Z" fill="white"/>
<path id="Vector_131" d="M75.6663 75.188L77.3406 73.9698C77.3689 73.9477 77.4043 73.9368 77.4401 73.9392C77.4759 73.9417 77.5095 73.9573 77.5345 73.983L78.6911 75.1704C78.7191 75.2014 78.7403 75.238 78.7533 75.2777C78.7663 75.3175 78.7707 75.3595 78.7664 75.4011C78.762 75.4426 78.7489 75.4828 78.728 75.519C78.707 75.5552 78.6787 75.5865 78.6448 75.611C78.0522 76.0252 77.746 76.197 77.0102 76.7324C76.5563 77.0628 75.6531 77.792 75.0274 78.248C74.4018 78.7041 73.9259 78.1093 74.1462 77.8647C75.1332 76.7632 75.3403 76.0803 75.4945 75.4612C75.5184 75.353 75.5791 75.2564 75.6663 75.188Z" fill="#093557"/>
<path id="Vector_132" d="M74.3467 73.7759L77.2613 72.4431L76.889 71.2556L73.7673 72.6788L74.3467 73.7759Z" fill="#82AE30"/>
<path id="Vector_133" d="M72.6922 26.1179C72.4521 25.4923 70.346 24.7961 69.2886 24.5758L68.8237 28.039C68.8237 28.039 70.5509 30.5196 71.3065 30.3147C72.201 30.0724 73.2122 27.4596 72.6922 26.1179Z" fill="#82AE30"/>
<path id="Vector_134" opacity="0.4" d="M72.6922 26.1179C72.4521 25.4923 70.346 24.7961 69.2886 24.5758L68.8237 28.039C68.8237 28.039 70.5509 30.5196 71.3065 30.3147C72.201 30.0724 73.2122 27.4596 72.6922 26.1179Z" fill="black"/>
<path id="Vector_135" d="M70.3813 25.9439C70.3813 25.9439 69.5001 26.2523 71.2625 37.0802H78.7528C78.6272 34.0312 78.6228 32.1498 80.0746 25.8888C79.0251 25.6723 77.9611 25.5324 76.8912 25.4702C75.7589 25.3886 74.6221 25.3886 73.4898 25.4702C72.038 25.598 70.3813 25.9439 70.3813 25.9439Z" fill="#82AE30"/>
<path id="Vector_136" opacity="0.4" d="M70.3813 25.9439C70.3813 25.9439 69.5001 26.2523 71.2625 37.0802H78.7528C78.6272 34.0312 78.6228 32.1498 80.0746 25.8888C79.0251 25.6723 77.9611 25.5324 76.8912 25.4702C75.7589 25.3886 74.6221 25.3886 73.4898 25.4702C72.038 25.598 70.3813 25.9439 70.3813 25.9439Z" fill="black"/>
<path id="Vector_137" d="M78.8695 36.6418L79.2066 37.3027C79.233 37.3555 79.1713 37.4084 79.0854 37.4084H71.225C71.1567 37.4084 71.1016 37.3754 71.0972 37.3313L71.0289 36.6704C71.0289 36.6241 71.084 36.5845 71.1567 36.5845H78.7373C78.7625 36.5805 78.7883 36.5838 78.8117 36.5939C78.8351 36.604 78.8552 36.6206 78.8695 36.6418Z" fill="#82AE30"/>
<path id="Vector_138" opacity="0.3" d="M78.8695 36.6418L79.2066 37.3027C79.233 37.3555 79.1713 37.4084 79.0854 37.4084H71.225C71.1567 37.4084 71.1016 37.3754 71.0972 37.3313L71.0289 36.6704C71.0289 36.6241 71.084 36.5845 71.1567 36.5845H78.7373C78.7625 36.5805 78.7883 36.5838 78.8117 36.5939C78.8351 36.604 78.8552 36.6206 78.8695 36.6418Z" fill="white"/>
<path id="Vector_139" d="M77.8562 37.4943H78.0588C78.1007 37.4943 78.1315 37.4723 78.1271 37.4481L78.0324 36.5669C78.0324 36.5404 77.995 36.5206 77.9553 36.5206H77.7504C77.7108 36.5206 77.6799 36.5404 77.6821 36.5669L77.7769 37.4481C77.7747 37.4679 77.8099 37.4943 77.8562 37.4943Z" fill="#093557"/>
<path id="Vector_140" d="M72.9235 37.4943H73.1262C73.1659 37.4943 73.1967 37.4723 73.1945 37.4481L73.0998 36.5669C73.0998 36.5404 73.0623 36.5206 73.0205 36.5206H72.8178C72.7759 36.5206 72.7473 36.5404 72.7495 36.5669L72.8442 37.4481C72.8464 37.4679 72.8817 37.4943 72.9235 37.4943Z" fill="#093557"/>
</g>
</g>
</svg>
