<svg width="24" height="22" viewBox="0 0 24 22" fill="none" xmlns="http://www.w3.org/2000/svg">
<g id="Comment">
<path id="Vector" d="M23.9125 3.28754V13.8977C23.9125 15.7103 22.4377 17.1852 20.625 17.1852H10.1949L3.27586 22V17.1852C1.46841 17.1791 0 15.7066 0 13.8977V3.28754C0 1.47483 1.47483 0 3.28754 0H20.625C22.4377 0 23.9125 1.47483 23.9125 3.28754Z" fill="#FFDB2D"/>
<path id="Vector_2" d="M23.9126 3.28754V13.8977C23.9126 15.7103 22.4377 17.1852 20.625 17.1852H11.9526V0H20.625C22.4377 0 23.9126 1.47483 23.9126 3.28754Z" fill="#FFAA20"/>
<g id="Group">
<path id="Vector_3" d="M6.40021 4.95056H17.5123V6.35169H6.40021V4.95056Z" fill="white"/>
<path id="Vector_4" d="M6.40021 7.93982H17.5123V9.34094H6.40021V7.93982Z" fill="white"/>
<path id="Vector_5" d="M6.40021 10.9288H17.5123V12.33H6.40021V10.9288Z" fill="white"/>
</g>
<path id="Vector_6" d="M11.9526 4.95056H17.5123V6.35169H11.9526V4.95056Z" fill="#E1E1E3"/>
<path id="Vector_7" d="M11.9526 7.93982H17.5123V9.34094H11.9526V7.93982Z" fill="#E1E1E3"/>
<path id="Vector_8" d="M11.9526 10.9288H17.5123V12.33H11.9526V10.9288Z" fill="#E1E1E3"/>
</g>
</svg>
